<?xml version="1.0" encoding="UTF-8"?>
<!-- Generated by Pixelmator Pro 2.3.8 -->
<svg width="1500" height="1000" viewBox="0 0 1500 1000" xmlns="http://www.w3.org/2000/svg" xmlns:xlink="http://www.w3.org/1999/xlink">
    <path id="Ellipse" fill="#fbcc54" fill-rule="evenodd" stroke="none" d="M 1258 629.5 C 1258 348.663208 1030.336792 121 749.5 121 C 468.663208 121 241 348.663208 241 629.5 C 241 910.336792 468.663208 1138 749.5 1138 C 1030.336792 1138 1258 910.336792 1258 629.5 Z"/>
    <path id="Ellipse-copy" fill="none" stroke="#f5bf40" stroke-width="19" stroke-linecap="round" stroke-linejoin="round" stroke-dasharray="38 38" stroke-dashoffset="38" d="M 1188 629.5 C 1188 387.32312 991.67688 191 749.5 191 C 507.32312 191 311 387.32312 311 629.5 C 311 871.67688 507.32312 1068 749.5 1068 C 991.67688 1068 1188 871.67688 1188 629.5 Z"/>
    <path id="Path" fill="none" stroke="#fa643b" stroke-width="30" stroke-linecap="round" stroke-linejoin="round" d="M 1209.805054 278.116638 C 1163.233276 210.3396 1122.76416 166.138733 1027.62793 123.460938"/>
    <path id="Path-copy" fill="none" stroke="#296c69" stroke-width="30" stroke-linecap="round" stroke-linejoin="round" d="M 420.635742 153.265808 C 320.445953 231.271606 256.03421 297.706604 198.990021 448.26123"/>
    <path id="Path-copy-1" fill="none" stroke="#eaeaea" stroke-width="30" stroke-linecap="round" stroke-linejoin="round" d="M 1233.116821 942.250793 C 1264.911865 903.0849 1283.894409 871.601685 1292.49231 808.217957"/>
</svg>
